<?xml version="1.0" standalone="no"?>
<!DOCTYPE svg PUBLIC "-//W3C//DTD SVG 1.1//EN" "http://www.w3.org/Graphics/SVG/1.1/DTD/svg11.dtd">
<svg width="100%" height="100%" viewBox="0 0 800 800" version="1.1" xmlns="http://www.w3.org/2000/svg" xmlns:xlink="http://www.w3.org/1999/xlink" xml:space="preserve" style="fill-rule:evenodd;clip-rule:evenodd;stroke-linejoin:round;stroke-miterlimit:1.41421;">
    <g id="base" transform="translate(400,400)">
        <g class="rotate_here">
            <path class="gear" transform="translate(-400,-400)" d="m 422.30709,59.978732 c -14.85542,-0.975421 -29.75877,-0.975421 -44.61419,0 l -30.14219,76.253838 c -11.5237,2.29153 -22.88548,5.33697 -34.0115,9.1143 L 249.30779,94.378844 c -13.35277,6.583116 -26.25865,14.035446 -38.6373,22.307736 l 12.02372,81.10893 c -8.83449,7.74637 -17.15083,16.064 -24.8985,24.89849 l -81.10892,-12.02371 c -8.2723,12.37865 -15.72332,25.28452 -22.307741,38.6373 L 145.34707,313.539 c -3.77733,11.12602 -6.82147,22.4878 -9.113,34.0115 l -76.255132,30.1422 c -0.975421,14.85542 -0.975421,29.75876 0,44.61418 l 76.255132,30.1422 c 2.29153,11.52499 5.33567,22.88548 9.113,34.0115 l -50.968021,64.23141 c 6.584421,13.35278 14.035441,26.25995 22.307741,38.6373 l 81.10892,-12.02371 c 7.74767,8.83449 16.06401,17.15212 24.8985,24.89849 l -12.02372,81.11022 c 12.37865,8.271 25.28453,15.72333 38.6373,22.30645 l 64.23142,-50.96673 c 11.12602,3.77733 22.4878,6.82147 34.0115,9.113 l 30.14219,76.25513 c 14.85542,0.97413 29.75877,0.97413 44.61419,0 l 30.14219,-76.25513 c 11.525,-2.29153 22.88548,-5.33567 34.0115,-9.113 l 64.23142,50.96673 c 13.35278,-6.58312 26.25994,-14.03545 38.6373,-22.30645 l -12.02372,-81.11022 c 8.83449,-7.74637 17.15213,-16.064 24.8985,-24.89849 l 81.11022,12.02371 c 8.271,-12.37735 15.72332,-25.28452 22.30644,-38.6373 l -50.96672,-64.23141 c 3.77732,-11.12602 6.82147,-22.48651 9.11299,-34.0115 l 76.25514,-30.1422 c 0.97412,-14.85542 0.97412,-29.75876 0,-44.61418 l -76.25514,-30.1422 c -2.29152,-11.5237 -5.33567,-22.88548 -9.11299,-34.0115 l 50.96672,-64.23141 C 699.03782,235.95481 691.5855,223.04894 683.3145,210.67029 L 602.20428,222.694 c -7.74637,-8.83449 -16.06401,-17.15212 -24.8985,-24.89849 l 12.02372,-81.10893 c -12.37736,-8.27229 -25.28452,-15.72462 -38.6373,-22.307736 l -64.23142,50.968026 c -11.12602,-3.77733 -22.4865,-6.82277 -34.0115,-9.1143 L 422.30709,59.978732 Z M 400.00064,242.06253 c 87.16742,0 157.93791,70.7692 157.93791,157.93791 0,87.16741 -70.77049,157.93791 -157.93791,157.93791 -87.16871,0 -157.93791,-70.7705 -157.93791,-157.93791 0,-87.16871 70.7692,-157.93791 157.93791,-157.93791 z" />
        </g>
    </g>
</svg>
